<?xml version="1.0" standalone="no"?>
<!DOCTYPE svg PUBLIC "-//W3C//DTD SVG 20010904//EN"
 "http://www.w3.org/TR/2001/REC-SVG-20010904/DTD/svg10.dtd">
<svg version="1.0" xmlns="http://www.w3.org/2000/svg"
 width="860.000000pt" height="660.000000pt" viewBox="0 0 860.000000 660.000000"
 preserveAspectRatio="xMidYMid meet">

<g transform="translate(0.000000,660.000000) scale(0.100000,-0.100000)"
fill="#000000" stroke="none">
<path d="M2250 6070 c0 -73 4 -120 10 -120 6 0 10 47 10 120 0 73 -4 120 -10
120 -6 0 -10 -47 -10 -120z"/>
<path d="M2322 6073 c2 -82 7 -118 16 -121 9 -3 12 25 12 117 0 102 -2 121
-15 121 -13 0 -15 -17 -13 -117z"/>
<path d="M3090 6070 c0 -73 4 -120 10 -120 6 0 10 13 10 28 0 52 20 55 61 9
48 -55 59 -43 15 15 l-35 45 30 37 c18 21 25 36 17 36 -7 0 -26 -16 -41 -35
-15 -19 -32 -35 -37 -35 -6 0 -10 32 -10 70 0 40 -4 70 -10 70 -6 0 -10 -47
-10 -120z"/>
<path d="M3800 6076 c0 -63 4 -117 9 -120 5 -4 11 -2 13 4 2 7 14 6 35 -2 59
-22 103 30 89 107 -8 42 -36 59 -82 52 -34 -6 -34 -5 -34 34 0 28 -4 39 -15
39 -12 0 -15 -19 -15 -114z m108 12 c7 -7 12 -31 12 -55 0 -36 -4 -45 -24 -54
-40 -18 -66 3 -66 54 0 47 13 67 45 67 12 0 26 -5 33 -12z"/>
<path d="M4810 6070 c0 -73 4 -120 10 -120 6 0 10 47 10 120 0 73 -4 120 -10
120 -6 0 -10 -47 -10 -120z"/>
<path d="M6136 6168 c-9 -12 -16 -27 -16 -32 0 -5 -8 -15 -17 -22 -17 -12 -17
-13 -1 -14 14 0 18 -12 20 -72 2 -46 7 -73 16 -76 9 -3 12 16 12 72 0 69 2 76
20 76 11 0 20 5 20 10 0 6 -9 10 -21 10 -30 0 -22 44 9 48 30 4 28 22 -2 22
-14 0 -32 -10 -40 -22z"/>
<path d="M7130 6070 c0 -73 4 -120 10 -120 6 0 10 24 10 53 0 61 20 97 55 97
32 0 45 -27 45 -94 0 -31 5 -56 10 -56 6 0 10 29 10 68 0 54 -4 72 -18 85 -21
19 -54 22 -83 7 -17 -10 -19 -7 -19 35 0 25 -4 45 -10 45 -6 0 -10 -47 -10
-120z"/>
<path d="M1897 6174 c-9 -9 -9 -135 -1 -186 9 -50 24 -38 24 18 l0 44 45 0
c25 0 45 5 45 10 0 6 -20 10 -45 10 l-45 0 0 39 0 40 48 3 c26 2 46 8 45 13
-3 12 -105 19 -116 9z"/>
<path d="M2502 6168 c-26 -13 -38 -49 -24 -74 5 -9 29 -26 53 -38 75 -36 56
-96 -26 -80 -22 4 -35 2 -35 -4 0 -16 61 -25 91 -14 67 26 63 81 -9 115 -37
18 -47 27 -47 47 0 23 4 25 48 28 54 4 62 17 16 26 -38 7 -38 7 -67 -6z"/>
<path d="M3310 6173 c0 -28 59 -218 68 -221 7 -2 22 33 38 87 15 50 30 88 33
85 3 -3 17 -42 31 -86 14 -45 30 -83 36 -85 11 -4 79 216 70 225 -12 11 -25
-15 -41 -80 -10 -40 -21 -79 -24 -86 -4 -7 -19 27 -34 78 -25 83 -38 103 -51
82 -3 -5 -16 -47 -30 -93 -13 -46 -27 -77 -30 -69 -3 8 -14 48 -24 89 -10 41
-23 76 -30 79 -7 2 -12 0 -12 -5z"/>
<path d="M4080 6065 l0 -115 40 0 c52 0 105 22 120 50 16 29 16 100 1 129 -16
29 -68 51 -121 51 l-40 0 0 -115z m129 59 c47 -60 10 -145 -65 -148 l-39 -1
-3 88 -3 87 45 0 c36 0 48 -5 65 -26z"/>
<path d="M5840 6065 c0 -70 4 -115 10 -115 6 0 10 45 10 115 0 70 -4 115 -10
115 -6 0 -10 -45 -10 -115z"/>
<path d="M6485 6173 c-58 -15 -93 -74 -81 -137 12 -61 69 -92 146 -80 l40 7 0
53 0 54 -40 0 c-22 0 -40 -4 -40 -10 0 -5 11 -10 25 -10 22 0 25 -4 25 -34 0
-42 -23 -53 -75 -36 -42 14 -55 35 -55 88 0 56 31 82 98 82 57 0 70 14 21 24
-33 6 -33 6 -64 -1z"/>
<path d="M7322 6169 c2 -6 8 -10 13 -10 5 0 11 4 13 10 2 6 -4 11 -13 11 -9 0
-15 -5 -13 -11z"/>
<path d="M2671 6153 c0 -7 -11 -21 -23 -33 -18 -17 -19 -20 -5 -20 14 0 17
-11 17 -65 0 -55 3 -66 21 -75 11 -7 28 -9 37 -5 14 5 12 8 -8 18 -22 11 -25
20 -28 70 -3 55 -2 57 23 57 14 0 25 5 25 10 0 6 -11 10 -24 10 -18 0 -26 7
-29 23 -2 12 -5 17 -6 10z"/>
<path d="M2050 6055 c0 -90 34 -125 93 -94 16 9 22 9 25 0 2 -6 8 -11 13 -11
5 0 9 38 9 85 0 50 -4 85 -10 85 -5 0 -10 -23 -10 -51 0 -77 -28 -112 -71 -89
-16 9 -19 22 -19 75 0 51 -3 65 -15 65 -12 0 -15 -14 -15 -65z"/>
<path d="M2787 6113 c-15 -14 -5 -20 31 -19 31 1 37 -2 40 -21 3 -20 -1 -23
-31 -23 -19 0 -45 -8 -58 -19 -20 -16 -22 -22 -11 -45 14 -31 52 -42 83 -25
17 9 24 9 27 0 9 -28 22 5 22 57 0 73 -19 102 -64 102 -18 0 -36 -3 -39 -7z
m73 -103 c0 -23 -40 -43 -65 -34 -18 7 -20 40 -2 47 6 3 24 6 40 6 21 1 27 -4
27 -19z"/>
<path d="M2949 6099 c-30 -30 -24 -105 13 -132 27 -20 78 -18 78 4 0 6 -9 8
-20 4 -34 -11 -70 20 -70 60 0 43 24 68 62 63 19 -3 28 0 28 9 0 22 -67 16
-91 -8z"/>
<path d="M3640 6100 c-19 -19 -25 -42 -20 -85 4 -42 52 -70 102 -60 39 9 36
29 -4 21 -35 -7 -78 15 -78 39 0 12 14 15 61 15 l61 0 -7 28 c-15 61 -74 83
-115 42z m78 -12 c25 -25 13 -38 -33 -38 -49 0 -50 1 -35 31 12 21 50 25 68 7z"/>
<path d="M4320 6100 c-26 -26 -28 -100 -2 -122 24 -22 56 -30 86 -22 37 9 33
27 -4 19 -35 -8 -80 15 -80 40 0 12 14 15 60 15 52 0 60 3 60 19 0 10 -9 30
-21 45 -25 32 -70 35 -99 6z m78 -12 c25 -25 13 -38 -33 -38 -48 0 -55 9 -29
34 18 19 45 21 62 4z"/>
<path d="M4480 6039 c17 -44 30 -83 30 -85 0 -3 7 -4 16 -2 17 3 80 156 69
166 -9 9 -21 -10 -40 -63 -10 -27 -21 -54 -25 -58 -7 -8 -50 90 -50 113 0 6
-7 10 -15 10 -12 0 -8 -16 15 -81z"/>
<path d="M4650 6100 c-22 -22 -27 -78 -9 -111 13 -26 55 -41 91 -34 42 10 34
23 -13 21 -30 0 -45 5 -55 19 -23 31 -17 35 46 35 57 0 60 1 60 25 0 34 -33
65 -70 65 -17 0 -39 -9 -50 -20z m74 -6 c9 -3 16 -15 16 -25 0 -15 -7 -19 -40
-19 -41 0 -52 14 -28 38 13 13 28 15 52 6z"/>
<path d="M4909 6101 c-35 -28 -33 -95 4 -127 31 -27 45 -29 81 -13 31 15 50
59 41 98 -12 57 -80 80 -126 42z m89 -13 c7 -7 12 -29 12 -50 0 -29 -6 -41
-25 -54 -23 -15 -27 -15 -50 0 -27 18 -34 61 -15 97 12 22 59 26 78 7z"/>
<path d="M5080 6000 c0 -73 4 -120 10 -120 6 0 10 20 10 45 0 49 2 50 30 35
71 -38 129 77 72 143 -17 19 -53 22 -83 7 -13 -7 -19 -7 -19 0 0 5 -4 10 -10
10 -6 0 -10 -47 -10 -120z m104 84 c24 -24 20 -80 -6 -98 -29 -20 -34 -20 -58
4 -37 37 -17 110 30 110 10 0 26 -7 34 -16z"/>
<path d="M5289 6101 c-35 -28 -33 -95 4 -127 32 -28 65 -31 93 -8 18 15 17 15
-15 10 -38 -7 -81 14 -81 39 0 11 13 15 55 15 54 0 55 1 55 28 0 56 -64 81
-111 43z m79 -13 c25 -25 13 -38 -33 -38 -30 0 -45 4 -45 13 0 19 21 37 45 37
12 0 26 -5 33 -12z"/>
<path d="M5450 6035 c0 -50 4 -85 10 -85 6 0 10 21 10 48 0 58 18 96 48 100
12 2 22 8 22 13 0 13 -34 11 -49 -3 -11 -10 -14 -10 -18 0 -13 35 -23 3 -23
-73z"/>
<path d="M5922 6038 c3 -95 21 -109 26 -21 3 64 14 83 46 83 36 0 46 -20 46
-87 0 -35 4 -63 10 -63 6 0 10 32 10 75 0 63 -3 76 -19 85 -27 14 -64 13 -80
-2 -11 -10 -14 -10 -18 0 -3 6 -9 12 -14 12 -6 0 -9 -35 -7 -82z"/>
<path d="M6230 6100 c-26 -26 -27 -89 -1 -121 13 -17 29 -23 56 -23 68 0 100
80 54 138 -26 33 -79 36 -109 6z m91 -16 c20 -24 16 -84 -6 -100 -10 -8 -25
-14 -32 -14 -22 0 -53 39 -53 67 0 52 60 84 91 47z"/>
<path d="M6642 6038 c3 -95 21 -109 26 -21 4 65 14 83 48 83 13 0 24 5 24 10
0 14 -43 12 -59 -2 -11 -10 -14 -10 -18 0 -3 6 -9 12 -14 12 -6 0 -9 -35 -7
-82z"/>
<path d="M6787 6113 c-15 -14 -5 -20 31 -19 31 1 37 -2 40 -21 3 -20 -1 -23
-31 -23 -19 0 -45 -8 -58 -19 -20 -16 -22 -22 -11 -45 14 -31 52 -42 83 -25
17 9 24 9 27 0 9 -28 22 5 22 57 0 73 -19 102 -64 102 -18 0 -36 -3 -39 -7z
m73 -103 c0 -23 -40 -43 -65 -34 -18 7 -20 40 -2 47 6 3 24 6 40 6 21 1 27 -4
27 -19z"/>
<path d="M6940 6000 c0 -100 3 -120 15 -120 11 0 15 12 15 45 0 42 2 45 19 35
30 -16 50 -12 76 15 32 31 34 96 5 125 -22 22 -69 26 -89 8 -11 -10 -14 -10
-18 0 -14 38 -23 -2 -23 -108z m111 84 c20 -24 16 -84 -6 -100 -24 -18 -40
-18 -59 2 -19 18 -21 85 -4 102 17 17 53 15 69 -4z"/>
<path d="M7322 6038 c4 -106 22 -105 26 2 2 67 0 80 -13 80 -13 0 -15 -13 -13
-82z"/>
<path d="M7411 6094 c-52 -67 3 -163 80 -139 29 9 23 28 -6 21 -43 -11 -65 9
-65 57 0 52 13 67 58 67 19 0 31 4 27 10 -3 6 -21 10 -40 10 -24 0 -39 -7 -54
-26z"/>
<path d="M5640 6040 c0 -5 18 -10 40 -10 22 0 40 5 40 10 0 6 -18 10 -40 10
-22 0 -40 -4 -40 -10z"/>
<path d="M4581 5383 c1 -38 4 -56 6 -42 3 20 12 28 41 35 64 16 49 74 -20 74
l-28 0 1 -67z m69 28 c0 -20 -32 -37 -50 -26 -5 3 -10 15 -10 26 0 14 7 19 30
19 23 0 30 -5 30 -19z"/>
<path d="M4701 5388 c-1 -39 3 -68 9 -68 6 0 10 14 10 30 0 27 3 30 30 30 27
0 30 -3 30 -30 0 -16 5 -30 10 -30 6 0 10 28 10 65 0 37 -4 65 -10 65 -5 0
-10 -13 -10 -30 0 -27 -3 -30 -30 -30 -25 0 -31 5 -39 33 -8 28 -9 24 -10 -35z"/>
<path d="M4830 5385 c0 -37 4 -65 10 -65 10 0 15 34 11 83 -2 23 2 27 23 27
30 0 42 -16 26 -35 -10 -12 -9 -15 4 -15 19 0 22 40 4 58 -7 7 -27 12 -45 12
l-33 0 0 -65z"/>
<path d="M5007 5443 c-4 -3 -7 -33 -7 -65 l0 -58 31 0 c51 0 69 16 69 60 0 22
-7 45 -16 54 -15 16 -65 22 -77 9z m77 -29 c12 -32 6 -63 -15 -74 -34 -19 -49
-5 -49 45 0 43 1 45 29 45 17 0 31 -6 35 -16z"/>
<path d="M5440 5385 c0 -37 4 -65 10 -65 6 0 10 28 10 65 0 37 -4 65 -10 65
-6 0 -10 -28 -10 -65z"/>
<path d="M6101 5428 c-1 -9 -7 -19 -13 -21 -10 -4 -10 -6 0 -6 7 -1 12 -16 12
-41 0 -32 4 -40 18 -39 10 0 12 3 5 6 -7 2 -13 20 -13 39 0 20 5 34 13 34 8 0
9 3 1 8 -6 4 -14 14 -17 22 -4 12 -6 12 -6 -2z"/>
<path d="M5137 5403 c-11 -11 -8 -58 5 -71 15 -15 45 -16 53 -2 4 7 -2 9 -18
5 -17 -5 -26 -2 -30 9 -5 12 0 16 22 16 35 0 43 8 30 31 -9 18 -49 26 -62 12z
m51 -20 c2 -8 -6 -13 -22 -13 -19 0 -24 4 -19 15 6 18 34 16 41 -2z"/>
<path d="M5235 5395 c31 -91 36 -94 57 -30 9 25 12 45 7 45 -4 0 -10 -13 -14
-30 -7 -30 -25 -42 -25 -17 0 7 -7 22 -16 33 -15 19 -16 19 -9 -1z"/>
<path d="M5340 5394 c-28 -32 22 -96 51 -67 6 6 1 9 -13 9 -19 -1 -23 4 -23
29 0 38 31 47 44 13 6 -13 10 -18 10 -11 3 41 -43 59 -69 27z"/>
<path d="M5501 5396 c-16 -20 -10 -56 12 -70 27 -17 52 4 52 45 0 29 -4 34
-26 37 -14 2 -31 -4 -38 -12z m54 -31 c0 -23 -5 -30 -19 -30 -24 0 -41 27 -33
49 4 11 15 16 29 14 18 -2 23 -9 23 -33z"/>
<path d="M5600 5348 c0 -32 4 -58 10 -58 10 0 11 9 14 75 1 23 6 30 21 30 27
0 33 -44 9 -62 -16 -12 -16 -13 -1 -13 25 0 42 42 28 68 -9 16 -20 21 -46 20
l-35 -1 0 -59z"/>
<path d="M5710 5363 c0 -53 18 -57 22 -6 2 27 8 39 21 41 14 3 17 -4 18 -40
l1 -43 8 40 c10 50 7 55 -35 53 -34 -1 -35 -2 -35 -45z"/>
<path d="M5812 5398 c9 -7 19 -29 21 -48 3 -26 4 -24 3 10 -1 36 -5 45 -21 48
-18 4 -19 3 -3 -10z"/>
<path d="M5882 5398 c-27 -27 -7 -78 29 -78 10 0 20 4 23 8 3 5 -4 8 -16 8
-12 -1 -23 5 -25 12 -3 8 6 12 26 12 31 0 36 6 25 34 -7 19 -45 21 -62 4z m56
-15 c2 -8 -6 -13 -22 -13 -17 0 -26 5 -26 16 0 19 41 16 48 -3z"/>
<path d="M5980 5365 c0 -25 5 -45 10 -45 6 0 10 20 10 45 0 25 -4 45 -10 45
-5 0 -10 -20 -10 -45z"/>
<path d="M6023 5404 c12 -4 17 -16 17 -45 0 -21 5 -39 11 -39 6 0 9 17 7 43
-3 37 -6 42 -28 44 -14 1 -18 0 -7 -3z"/>
<path d="M4647 5186 l-77 -85 -108 6 c-89 5 -121 2 -191 -16 -246 -62 -431
-234 -504 -468 -32 -103 -40 -181 -26 -277 24 -173 80 -275 239 -436 148 -149
175 -198 175 -320 -1 -77 -4 -92 -37 -160 -20 -41 -59 -103 -87 -137 l-51 -63
27 -14 c26 -13 29 -12 88 41 73 68 142 113 221 146 67 29 194 57 254 57 68 0
310 59 310 76 0 2 -9 21 -20 42 -72 138 -44 249 127 497 79 115 106 207 106
365 0 108 -3 136 -26 206 -68 205 -248 381 -444 433 -24 7 -43 15 -43 19 0 4
35 42 78 85 l77 77 610 3 610 2 -615 3 -616 2 -77 -84z m-147 -153 c0 -13 -64
-73 -78 -73 -16 0 -11 -22 6 -28 7 -2 16 7 21 20 5 13 25 38 44 55 31 27 40
30 69 23 177 -42 335 -167 411 -323 38 -80 42 -94 57 -194 33 -236 -111 -496
-335 -603 -104 -49 -175 -63 -300 -57 -134 6 -206 29 -311 99 -116 78 -203
199 -240 335 -25 93 -21 233 10 328 62 194 232 357 426 409 56 15 220 22 220
9z"/>
<path d="M4390 4686 c0 -33 -39 -43 -61 -15 -13 18 -19 19 -41 8 -23 -10 -25
-14 -15 -36 15 -34 -11 -60 -43 -43 -24 13 -23 14 -39 -18 -10 -20 -9 -25 10
-41 18 -15 20 -21 10 -39 -6 -12 -21 -22 -31 -22 -16 0 -20 -7 -20 -30 0 -25
4 -30 24 -30 44 0 45 -48 2 -63 -5 -2 -3 -14 4 -27 17 -34 16 -33 40 -20 32
17 58 -9 43 -43 -10 -21 -8 -26 14 -38 22 -12 27 -11 38 5 20 27 59 17 63 -16
3 -23 8 -28 32 -28 24 0 29 5 32 27 4 34 32 42 59 17 16 -15 23 -15 43 -4 21
11 23 16 13 37 -15 34 11 60 43 43 24 -13 23 -14 40 19 12 23 7 33 -24 44 -5
1 -6 13 -2 25 5 15 15 22 32 22 20 0 24 5 24 30 0 23 -4 30 -20 30 -10 0 -25
10 -31 22 -10 18 -8 24 10 39 19 16 20 21 10 41 -16 32 -15 31 -39 18 -32 -17
-58 9 -43 43 10 22 8 26 -15 36 -22 11 -28 10 -41 -8 -22 -28 -61 -18 -61 15
0 20 -5 24 -30 24 -25 0 -30 -4 -30 -24z m83 -100 c69 -29 105 -102 85 -173
-29 -105 -169 -137 -244 -57 -70 74 -45 187 51 230 39 17 68 17 108 0z"/>
<path d="M6093 4995 c-82 -85 -155 -155 -161 -155 -14 0 -16 -26 -2 -35 5 -3
17 7 27 22 9 15 33 44 53 63 19 19 79 83 133 142 l99 108 611 3 612 2 -611 3
-612 2 -149 -155z"/>
<path d="M5566 4695 c-45 -54 -74 -117 -83 -182 l-7 -48 -8 35 c-4 20 -5 -2
-2 -50 3 -46 8 -87 12 -90 5 -3 16 -26 26 -52 39 -104 150 -202 257 -228 72
-18 192 -8 256 20 59 25 99 59 47 40 -91 -35 -212 -32 -306 9 -68 29 -153 113
-187 185 -55 114 -49 254 15 363 14 24 23 43 21 43 -3 0 -21 -20 -41 -45z"/>
<path d="M1414 4581 c1 -61 16 -78 59 -67 26 6 27 9 25 64 l-2 57 -3 -52 c-3
-41 -8 -53 -24 -58 -30 -10 -48 11 -52 63 -4 44 -4 43 -3 -7z"/>
<path d="M1540 4570 c0 -33 4 -60 10 -60 6 0 10 27 10 60 0 33 -4 60 -10 60
-6 0 -10 -27 -10 -60z"/>
<path d="M1650 4590 c-6 -23 -9 -44 -7 -46 2 -3 9 14 15 38 6 23 9 44 7 46 -2
2 -9 -15 -15 -38z"/>
<path d="M1740 4586 c0 -50 19 -76 54 -76 34 0 46 20 44 75 l-2 50 -3 -47 c-4
-52 -22 -73 -53 -63 -17 5 -20 15 -20 56 0 27 -4 49 -10 49 -5 0 -10 -20 -10
-44z"/>
<path d="M1894 4605 c16 -25 16 -28 -4 -60 -24 -38 -12 -48 14 -12 l16 22 16
-22 c25 -35 38 -27 16 10 -18 29 -19 35 -6 60 16 30 9 36 -12 10 -13 -17 -15
-17 -28 0 -21 27 -30 20 -12 -8z"/>
<path d="M2050 4570 l0 -60 31 0 c50 0 69 16 69 58 0 48 -14 62 -62 62 l-38 0
0 -60z m83 29 c16 -25 0 -68 -28 -75 -13 -3 -29 -3 -34 1 -12 7 -15 78 -4 89
12 12 55 2 66 -15z"/>
<path d="M5770 4600 c0 -19 7 -20 165 -20 91 0 165 2 165 4 0 2 -3 11 -6 20
-5 14 -29 16 -165 16 -152 0 -159 -1 -159 -20z"/>
<path d="M2192 4592 c-8 -6 -12 -23 -10 -43 2 -27 8 -35 27 -37 13 -2 28 1 34
7 7 7 2 10 -18 8 -15 -1 -30 4 -32 11 -3 8 6 12 27 12 27 0 31 3 28 23 -3 23
-33 34 -56 19z m46 -19 c2 -8 -6 -13 -22 -13 -25 0 -33 10 -19 24 10 10 36 3
41 -11z"/>
<path d="M2283 4584 c-7 -18 4 -31 30 -36 28 -5 19 -23 -10 -21 -18 2 -23 -1
-16 -8 16 -16 57 -6 61 14 3 12 -6 21 -27 28 -36 13 -31 34 6 24 16 -4 22 -2
18 5 -10 16 -55 12 -62 -6z"/>
<path d="M2387 4593 c-11 -10 -8 -83 3 -83 6 0 10 20 10 45 0 46 -2 50 -13 38z"/>
<path d="M2439 4579 c-14 -27 3 -69 28 -69 17 1 17 1 1 11 -10 5 -18 21 -18
34 0 13 8 29 18 34 16 10 16 10 0 11 -10 0 -22 -10 -29 -21z"/>
<path d="M2499 4593 c0 -5 -1 -30 -2 -58 -2 -49 -3 -50 -32 -48 -22 2 -26 0
-15 -7 40 -26 70 4 70 71 0 27 -4 49 -10 49 -5 0 -10 -3 -11 -7z"/>
<path d="M2551 4555 l1 -50 8 40 c5 22 4 44 -1 50 -5 5 -9 -11 -8 -40z"/>
<path d="M2593 4589 c11 -6 17 -22 17 -44 0 -19 5 -35 10 -35 11 0 14 49 4 74
-3 9 -16 16 -28 16 -19 -1 -19 -2 -3 -11z"/>
<path d="M5770 4465 l0 -65 159 0 c179 0 171 -4 171 81 l0 49 -165 0 -165 0 0
-65z"/>
<path d="M2019 4433 l615 -3 24 -23 c13 -12 56 -57 94 -99 l70 -78 -29 -10
c-176 -66 -299 -213 -323 -386 -27 -198 71 -379 255 -470 67 -33 88 -38 165
-42 60 -3 117 1 177 13 148 30 314 6 502 -70 87 -36 220 -108 278 -151 l32
-24 -26 -68 c-40 -104 -55 -194 -51 -314 2 -59 6 -109 9 -112 3 -4 19 -4 35 0
l29 6 0 126 c0 132 18 230 52 281 l16 25 18 -23 c10 -12 16 -30 13 -39 -5 -16
-5 -16 8 0 13 15 18 13 56 -26 23 -24 42 -46 42 -50 0 -4 7 -14 15 -22 20 -21
19 -93 -2 -124 -85 -127 -261 -196 -436 -171 -105 14 -167 36 -338 117 -163
77 -249 99 -366 90 l-82 -6 -83 90 -83 90 -615 -2 -615 -3 610 -2 610 -3 82
-82 c46 -46 83 -85 83 -89 0 -3 -19 -11 -42 -18 -57 -17 -163 -75 -217 -119
-58 -47 -124 -133 -160 -207 -156 -327 6 -708 349 -825 89 -31 242 -38 330
-16 104 26 204 80 280 153 84 78 124 138 179 264 52 118 122 227 191 296 46
45 106 83 113 72 80 -132 176 -233 285 -301 l61 -37 10 50 c14 62 14 180 0
238 -5 24 -7 46 -4 50 4 3 55 -11 114 -32 59 -21 132 -41 162 -44 122 -12 253
41 346 140 100 108 146 237 126 354 -24 138 -100 240 -221 300 -74 37 -79 38
-181 37 -77 -1 -117 -6 -145 -18 -21 -9 -36 -20 -33 -23 3 -3 52 1 109 7 90
11 111 11 165 -3 110 -29 195 -98 242 -197 23 -48 26 -68 26 -155 -1 -75 -5
-108 -18 -132 -24 -45 -30 -42 -10 5 11 24 17 65 17 122 0 72 -4 94 -28 147
-69 151 -222 228 -398 202 -346 -53 -921 293 -1073 646 -9 22 -29 83 -44 136
-33 115 -64 171 -131 237 -93 92 -206 134 -347 130 l-82 -2 -97 102 -96 102
-616 -2 -617 -3 614 -2z m1065 -279 c175 -70 279 -256 242 -432 -18 -87 -42
-134 -101 -200 -113 -125 -324 -162 -475 -81 -74 39 -143 112 -178 187 -24 50
-27 69 -27 157 0 93 2 105 33 167 22 45 52 85 96 126 78 73 142 97 262 101 68
2 92 -2 148 -25z m1580 -1119 c74 -19 136 -62 175 -122 41 -62 54 -114 49
-194 -8 -112 -73 -203 -183 -254 -58 -28 -184 -26 -246 2 -134 61 -207 219
-165 354 34 106 108 181 212 213 63 19 87 19 158 1z m-1497 -343 c85 -27 196
-103 249 -171 59 -75 90 -143 111 -246 17 -81 17 -89 0 -169 -21 -103 -44
-156 -101 -234 -59 -80 -127 -132 -223 -172 -133 -56 -305 -54 -433 6 -219
102 -344 344 -296 574 42 201 203 371 398 422 47 12 48 12 82 -21 19 -19 34
-39 33 -44 -1 -6 6 -13 16 -15 10 -2 17 2 17 12 0 9 -5 16 -12 16 -17 0 -58
41 -58 58 0 20 133 11 217 -16z m975 -261 c39 -15 81 -79 84 -125 1 -23 5 -53
9 -69 6 -24 5 -26 -11 -21 -11 4 -25 12 -33 18 -7 6 -2 -7 13 -28 48 -72 30
-86 -43 -32 -82 61 -201 198 -201 233 0 17 30 17 57 -2 20 -14 21 -13 16 6 -5
19 -3 21 25 17 18 -2 32 -1 32 4 0 11 23 10 52 -1z"/>
<path d="M2907 4136 c10 -20 23 -36 30 -36 25 0 20 17 -13 43 l-34 28 17 -35z"/>
<path d="M2859 3931 c-56 -56 -29 -153 47 -167 100 -19 165 96 95 167 -23 23
-38 29 -71 29 -33 0 -48 -6 -71 -29z"/>
<path d="M2824 3752 c-18 -11 -54 -75 -54 -94 0 -16 10 -18 70 -18 39 0 70 3
70 6 0 12 -61 114 -68 114 -4 0 -12 -4 -18 -8z"/>
<path d="M2977 3700 l-36 -60 74 0 c81 0 88 6 64 53 -14 27 -50 67 -60 67 -3
0 -23 -27 -42 -60z"/>
<path d="M2905 3733 c4 -10 10 -26 12 -35 8 -28 19 -21 30 17 11 35 11 35 -19
35 -25 0 -29 -3 -23 -17z"/>
<path d="M4587 2940 c12 -35 13 -51 4 -72 -14 -37 -41 -37 -41 -1 0 21 -3 24
-12 15 -9 -9 -7 -26 7 -71 17 -58 16 -91 -4 -91 -6 0 -10 16 -9 36 1 21 -5 42
-16 52 -16 16 -17 16 -8 -8 9 -25 -14 -110 -37 -133 -16 -16 -14 -93 4 -127
30 -57 104 -76 162 -40 42 25 56 53 55 115 0 51 -29 141 -32 100 -2 -23 -28
66 -31 105 -1 14 -5 4 -8 -23 -3 -26 -10 -48 -16 -48 -17 0 -17 32 0 88 19 59
15 88 -14 124 l-20 24 16 -45z m-29 -418 c2 -6 -4 -12 -13 -12 -21 0 -55 18
-55 29 0 13 63 -3 68 -17z m88 2 c-24 -17 -59 -19 -54 -1 5 12 58 27 68 19 3
-2 -4 -10 -14 -18z"/>
<path d="M2839 2331 c-74 -74 0 -200 100 -171 23 7 35 -1 108 -73 79 -77 84
-81 100 -64 16 16 13 21 -60 95 -77 77 -78 79 -71 119 7 45 -13 95 -45 113
-11 5 -38 10 -61 10 -33 0 -48 -6 -71 -29z m131 -16 c72 -77 -41 -185 -115
-110 -16 15 -25 36 -25 55 0 71 91 107 140 55z"/>
<path d="M4110 2295 c30 -30 57 -55 59 -55 3 0 -19 25 -49 55 -30 30 -57 55
-59 55 -3 0 19 -25 49 -55z"/>
<path d="M6518 3667 c-87 -89 -158 -163 -158 -164 0 -2 9 -3 20 -3 11 0 20 5
20 11 0 8 169 201 201 229 13 12 81 90 78 90 -2 0 -75 -73 -161 -163z"/>
<path d="M5914 3328 c-75 -100 -104 -186 -104 -309 0 -133 52 -259 149 -357
31 -31 45 -49 31 -41 -26 16 -68 34 -59 25 11 -12 131 -87 167 -105 64 -32 90
-33 30 -1 -72 38 -75 47 -5 15 67 -31 175 -48 246 -39 66 8 178 40 186 54 8
13 6 13 -62 -5 -171 -45 -358 9 -489 141 -166 167 -196 407 -75 615 22 38 38
69 36 69 -2 0 -25 -28 -51 -62z"/>
<path d="M6307 3223 c-4 -3 -7 -13 -7 -22 1 -14 2 -13 11 2 8 13 24 17 79 17
55 0 71 -4 79 -17 9 -16 10 -16 11 5 0 21 -3 22 -83 22 -46 0 -87 -3 -90 -7z"/>
<path d="M6210 3045 l0 -135 183 2 182 3 0 130 0 130 -182 3 -183 2 0 -135z"/>
<path d="M1380 3125 c-16 -19 -6 -32 36 -50 19 -8 34 -19 34 -25 0 -17 -31
-24 -52 -11 -11 7 -23 10 -26 6 -10 -10 20 -25 51 -25 50 0 48 58 -3 70 -13 3
-25 11 -28 18 -5 17 27 27 41 13 17 -17 31 -13 17 4 -16 19 -54 19 -70 0z"/>
<path d="M1870 3080 c0 -66 16 -82 21 -22 5 48 0 82 -12 82 -5 0 -9 -27 -9
-60z"/>
<path d="M2040 3080 l0 -60 43 2 42 1 -37 4 c-32 4 -38 8 -38 28 0 20 6 24 38
28 l37 4 -37 1 c-30 2 -38 6 -38 21 0 15 8 21 38 24 l37 4 -42 1 -43 2 0 -60z"/>
<path d="M1639 3096 c13 -15 13 -19 0 -27 -10 -6 -10 -9 -1 -9 6 0 12 -9 12
-20 0 -11 5 -20 10 -20 6 0 10 16 10 35 0 25 -6 37 -22 46 -21 11 -22 11 -9
-5z"/>
<path d="M2594 3085 c12 -28 26 -33 26 -10 0 8 -9 19 -19 24 -17 10 -18 9 -7
-14z"/>
<path d="M1494 3085 c-4 -8 -3 -26 0 -40 5 -20 13 -25 36 -25 17 0 30 4 30 8
0 4 -12 8 -27 7 -21 0 -28 5 -28 20 0 11 4 26 9 33 5 7 4 12 -3 12 -6 0 -14
-7 -17 -15z"/>
<path d="M1549 3087 c6 -8 8 -17 4 -20 -3 -4 -1 -7 5 -7 14 0 14 2 6 24 -3 9
-11 16 -16 16 -7 0 -6 -5 1 -13z"/>
<path d="M1701 3058 l1 -43 8 34 c4 18 14 37 22 42 9 6 7 9 -9 9 -20 0 -23 -5
-22 -42z"/>
<path d="M1774 3086 c-11 -30 1 -61 25 -64 13 -2 27 0 32 5 5 5 -3 9 -19 8
-21 0 -28 5 -30 24 -2 13 2 28 10 32 10 7 10 9 0 9 -7 0 -15 -6 -18 -14z"/>
<path d="M1940 3057 c4 -41 5 -41 8 -8 2 18 0 37 -5 42 -5 5 -6 -11 -3 -34z"/>
<path d="M2160 3060 c0 -22 5 -40 10 -40 6 0 10 18 10 40 0 22 -4 40 -10 40
-5 0 -10 -18 -10 -40z"/>
<path d="M2218 3060 c2 -22 8 -40 14 -40 12 0 6 73 -7 77 -7 2 -9 -12 -7 -37z"/>
<path d="M2274 3086 c-11 -27 1 -61 21 -64 18 -2 18 -2 3 8 -21 13 -23 41 -6
58 9 9 9 12 0 12 -7 0 -15 -6 -18 -14z"/>
<path d="M2328 3083 c8 -15 9 -50 3 -87 0 -5 -16 -6 -33 -2 -27 4 -29 4 -15
-5 10 -6 29 -8 43 -5 22 6 24 12 24 61 0 43 -3 55 -15 55 -12 0 -13 -5 -7 -17z"/>
<path d="M2380 3060 c0 -22 5 -40 10 -40 6 0 10 18 10 40 0 22 -4 40 -10 40
-5 0 -10 -18 -10 -40z"/>
<path d="M2443 3060 c0 -25 2 -35 4 -22 2 12 2 32 0 45 -2 12 -4 2 -4 -23z"/>
<path d="M2488 3088 c6 -7 12 -26 15 -43 3 -24 4 -22 6 13 1 33 -3 42 -15 42
-12 0 -14 -3 -6 -12z"/>
<path d="M2544 3075 c-4 -15 -1 -32 6 -40 13 -16 60 -21 60 -6 0 4 -12 6 -26
3 -25 -5 -26 -3 -22 32 5 41 -8 49 -18 11z"/>
<path d="M1597 3053 c-12 -19 1 -33 26 -32 16 1 17 3 5 6 -9 2 -18 12 -20 21
-3 13 -6 14 -11 5z"/>
<path d="M5345 2640 c-3 -5 -1 -10 4 -10 6 0 11 5 11 10 0 6 -2 10 -4 10 -3 0
-8 -4 -11 -10z"/>
<path d="M6924 2281 c-76 -81 -147 -151 -156 -154 -22 -6 -24 -37 -3 -37 8 0
15 5 15 11 0 6 64 80 142 165 l142 154 615 3 616 2 -616 3 -616 2 -139 -149z"/>
<path d="M4748 2319 c-43 -21 -78 -41 -78 -44 0 -3 36 13 80 35 44 22 80 42
80 45 0 7 4 8 -82 -36z"/>
<path d="M5092 2253 c-5 -11 -5 -32 0 -52 l9 -34 45 44 c24 24 44 47 44 51 0
4 -20 8 -45 8 -32 0 -47 -5 -53 -17z"/>
<path d="M4610 2166 c0 -2 13 -6 29 -8 17 -2 28 -1 25 4 -5 8 -54 12 -54 4z"/>
<path d="M4710 2132 c0 -5 -10 -14 -22 -20 -20 -9 -17 -11 23 -11 28 -1 51 -7
59 -16 23 -28 -33 -39 -199 -41 l-154 -1 -13 -26 c-8 -14 -10 -28 -5 -31 22
-14 172 -27 231 -22 63 7 219 41 228 51 3 3 -3 13 -12 24 -25 28 -136 104
-136 93z"/>
<path d="M6410 1953 c-41 -65 -54 -114 -54 -203 1 -102 30 -173 101 -250 32
-35 76 -70 106 -84 68 -33 168 -49 227 -37 l45 9 -63 1 c-158 3 -299 95 -364
237 -19 41 -23 66 -23 154 0 99 2 108 32 163 38 69 34 75 -7 10z"/>
<path d="M6832 1808 c2 -75 6 -93 18 -93 12 0 16 18 18 93 3 87 2 92 -18 92
-20 0 -21 -5 -18 -92z"/>
<path d="M6770 1801 c0 -58 4 -80 14 -84 23 -9 26 2 26 85 0 71 -2 78 -20 78
-18 0 -20 -7 -20 -79z"/>
<path d="M6720 1782 c0 -63 4 -74 26 -65 10 4 14 23 14 64 0 52 -2 59 -20 59
-18 0 -20 -7 -20 -58z"/>
<path d="M6664 1807 c-11 -29 0 -92 16 -92 11 0 15 12 15 49 0 49 -19 74 -31
43z"/>
<path d="M6660 1680 c0 -19 7 -20 105 -20 98 0 105 1 105 20 0 19 -7 20 -105
20 -98 0 -105 -1 -105 -20z"/>
<path d="M893 1518 c35 -66 42 -117 23 -162 -12 -30 -20 -37 -38 -34 -19 2
-24 10 -26 41 -2 20 -7 35 -13 32 -16 -10 -10 -88 11 -143 23 -59 26 -102 8
-120 -21 -21 -25 -14 -30 48 -3 49 -10 66 -31 87 l-26 26 17 -46 c16 -45 16
-47 -6 -92 -12 -25 -22 -50 -22 -56 0 -6 -7 -27 -16 -46 -12 -23 -19 -30 -25
-22 -12 20 -22 -55 -14 -108 15 -104 80 -172 174 -181 94 -9 190 64 206 156 8
51 -9 158 -34 212 -20 41 -21 42 -17 13 3 -18 1 -35 -4 -38 -6 -4 -10 7 -10
23 0 16 -9 55 -20 87 -11 32 -20 74 -20 93 0 61 -13 25 -19 -51 -5 -55 -10
-72 -21 -72 -23 0 -24 56 -1 130 35 114 24 180 -40 241 l-31 29 25 -47z m-68
-690 c28 -2 41 -8 43 -20 3 -13 -3 -18 -20 -18 -28 0 -88 35 -88 51 0 8 4 8
13 1 7 -6 30 -12 52 -14z m181 -13 c-35 -28 -59 -36 -76 -25 -26 16 -2 40 39
40 22 0 43 5 46 11 4 6 10 7 14 4 3 -4 -7 -17 -23 -30z"/>
<path d="M5049 1488 c-68 -79 -100 -140 -130 -249 -23 -82 -20 -124 17 -233
73 -217 280 -374 514 -390 41 -2 57 -1 35 2 -39 7 -39 7 33 20 89 15 89 15
202 -109 45 -49 85 -89 90 -89 4 0 -27 38 -71 83 -83 88 -124 137 -118 140 2
1 24 13 49 25 25 13 59 35 75 48 l30 24 -60 -24 c-92 -37 -132 -42 -157 -20
-11 11 -24 29 -29 42 -9 24 -29 26 -37 4 -2 -7 8 -16 21 -21 31 -12 43 -29 28
-44 -19 -19 -188 15 -267 54 -132 65 -244 210 -275 356 -16 77 -6 204 20 274
12 32 39 84 61 118 22 34 38 61 35 61 -2 0 -32 -32 -66 -72z"/>
<path d="M3657 1418 c-128 -130 -131 -135 -135 -222 -10 -189 84 -345 259
-430 l67 -32 -64 -67 c-34 -37 -59 -67 -54 -67 5 0 34 29 66 65 l57 65 86 -2
c83 -2 88 0 141 34 30 19 66 47 80 62 l24 27 -48 -22 c-32 -14 -77 -23 -130
-26 l-81 -4 33 29 c37 33 40 42 12 42 -11 0 -20 -6 -20 -13 0 -20 -33 -47 -57
-47 -35 0 -138 58 -186 105 -25 26 -59 72 -74 103 -26 52 -28 67 -28 167 0
101 2 114 28 162 15 29 41 68 58 88 47 53 25 42 -34 -17z"/>
<path d="M5373 1403 c-18 -7 -18 -384 -1 -401 17 -17 239 -17 256 0 8 8 12 67
12 198 0 131 -4 190 -12 198 -7 7 -30 11 -52 10 -41 -1 -41 -1 -6 -5 19 -3 41
-9 47 -15 18 -14 18 -319 1 -336 -16 -16 -220 -16 -236 0 -17 17 -17 322 1
336 6 6 28 12 47 15 35 4 35 4 -5 5 -22 0 -46 -2 -52 -5z m90 -390 c-7 -2 -21
-2 -30 0 -10 3 -4 5 12 5 17 0 24 -2 18 -5z"/>
<path d="M3940 1359 c-64 -25 -75 -87 -35 -193 14 -37 26 -79 28 -94 2 -32 25
-62 48 -62 18 0 55 37 47 46 -6 5 -1 27 17 79 6 18 5 18 -5 3 -8 -13 -24 -18
-59 -18 l-48 0 -22 56 c-35 93 -26 145 32 169 43 18 82 9 112 -27 26 -31 32
-30 15 3 -12 22 -61 49 -87 48 -10 0 -29 -5 -43 -10z"/>
<path d="M5483 1313 c-32 -6 -73 -59 -73 -93 0 -68 56 -114 111 -90 24 10 24
10 -3 5 -64 -12 -110 44 -88 109 14 43 38 58 88 54 29 -2 40 -9 51 -32 16 -34
5 -81 -19 -81 -11 0 -14 11 -12 43 3 39 2 42 -22 42 -45 0 -76 -43 -60 -84 7
-18 39 -22 49 -6 4 6 13 5 26 -3 17 -10 23 -9 40 12 10 13 19 35 19 50 0 26
-31 71 -50 71 -4 0 -14 2 -22 4 -7 2 -23 1 -35 -1z m39 -84 c-4 -26 -30 -52
-43 -43 -14 9 -10 41 7 59 22 21 40 14 36 -16z"/>
<path d="M4081 1264 c0 -11 3 -14 6 -6 3 7 2 16 -1 19 -3 4 -6 -2 -5 -13z"/>
<path d="M4062 1203 c-15 -48 -8 -55 8 -8 7 20 10 38 8 41 -3 2 -10 -13 -16
-33z"/>
<path d="M355 678 c-27 -15 -35 -28 -35 -60 0 -56 70 -88 116 -53 17 13 15 14
-28 8 -44 -5 -48 -4 -59 21 -10 20 -10 32 0 52 11 25 15 26 59 21 43 -6 45 -5
28 8 -23 18 -53 19 -81 3z"/>
<path d="M670 620 c0 -40 4 -70 10 -70 6 0 10 30 10 70 0 40 -4 70 -10 70 -6
0 -10 -30 -10 -70z"/>
<path d="M1041 671 c-6 -10 -19 -41 -30 -70 -16 -40 -18 -51 -7 -51 8 0 16 9
19 20 7 28 50 26 70 -2 8 -13 18 -20 21 -17 7 7 -46 139 -56 139 -4 0 -12 -8
-17 -19z m29 -47 c0 -8 -7 -14 -15 -14 -17 0 -18 2 -9 24 7 18 24 12 24 -10z"/>
<path d="M1200 680 c0 -5 7 -10 15 -10 8 0 15 5 15 10 0 6 -7 10 -15 10 -8 0
-15 -4 -15 -10z"/>
<path d="M486 632 c-35 -39 -4 -82 57 -80 l37 1 0 47 0 47 -39 1 c-26 1 -43
-4 -55 -16z m69 -32 c0 -20 -6 -26 -26 -28 -17 -2 -29 3 -32 12 -11 28 4 47
32 44 20 -2 26 -8 26 -28z"/>
<path d="M610 600 c0 -27 5 -50 10 -50 6 0 10 14 10 32 0 17 7 40 17 50 15 17
15 18 -10 18 -26 0 -27 -3 -27 -50z"/>
<path d="M736 634 c-32 -32 -8 -84 39 -84 28 0 55 24 55 50 0 26 -27 50 -55
50 -13 0 -31 -7 -39 -16z m69 -34 c0 -20 -6 -26 -28 -28 -18 -2 -29 2 -33 12
-11 28 4 48 33 44 22 -2 28 -8 28 -28z"/>
<path d="M863 643 c-21 -8 -15 -33 12 -45 33 -15 32 -28 -2 -28 -19 0 -24 -3
-16 -11 17 -17 58 -7 61 17 2 14 -6 25 -25 34 l-28 14 28 4 c15 2 25 8 22 13
-7 10 -32 11 -52 2z"/>
<path d="M1140 600 c0 -27 5 -50 10 -50 6 0 10 14 10 32 0 17 7 40 17 50 15
17 15 18 -10 18 -26 0 -27 -3 -27 -50z"/>
<path d="M1200 638 c0 -34 14 -88 21 -88 5 0 9 23 9 50 0 38 -4 50 -15 50 -8
0 -15 -6 -15 -12z"/>
<path d="M1268 639 c-19 -11 -23 -45 -8 -69 5 -9 27 -15 55 -16 l45 -2 0 48 0
47 -37 1 c-21 1 -46 -3 -55 -9z m67 -39 c0 -20 -6 -26 -28 -28 -18 -2 -29 2
-33 12 -11 28 4 48 33 44 22 -2 28 -8 28 -28z"/>
<path d="M1397 643 c-14 -13 -6 -42 13 -48 27 -8 25 -23 -2 -28 -20 -3 -21 -4
-5 -11 25 -12 47 0 47 25 0 12 -8 23 -20 26 -26 7 -26 23 1 23 11 0 17 5 14
10 -7 11 -38 13 -48 3z"/>
<path d="M3689 563 l-24 -28 28 24 c15 14 27 26 27 28 0 8 -8 1 -31 -24z"/>
<path d="M3480 540 l-85 -6 105 -2 c71 -1 100 1 90 8 -8 5 -17 9 -20 8 -3 -1
-43 -5 -90 -8z"/>
<path d="M2648 533 c28 -2 76 -2 105 0 28 2 5 3 -53 3 -58 0 -81 -1 -52 -3z"/>
<path d="M3048 533 c28 -2 76 -2 105 0 28 2 5 3 -53 3 -58 0 -81 -1 -52 -3z"/>
</g>
</svg>
